<svg id="Calque_1" data-name="Calque 1" xmlns="http://www.w3.org/2000/svg" viewBox="0 0 609.23 609.23"><defs><style>.cls-1{fill:#00a200;}.cls-2{fill:#f9e103;}</style></defs><title>logo-jadd</title><path class="cls-1" d="M698.15,310H948C926.62,182.32,825.85,81.56,698.15,60.21Z" transform="translate(-342.96 -56.01)"/><path class="cls-1" d="M952.1,368.08h-254v28.07h252C951.19,386.91,951.87,377.55,952.1,368.08Z" transform="translate(-342.96 -56.01)"/><path class="cls-1" d="M647.59,56h0Z" transform="translate(-342.96 -56.01)"/><rect class="cls-1" x="312.12" y="312.07" width="28.08" height="28.08"/><path class="cls-1" d="M698.15,353.08h254c-.23-9.48-.92-18.84-2-28.08h-252Z" transform="translate(-342.96 -56.01)"/><rect class="cls-1" x="312.12" y="268.99" width="28.08" height="28.08"/><rect class="cls-1" x="269.04" y="312.07" width="28.08" height="28.08"/><path class="cls-1" d="M655.08,56.11V310h28.07V58.09C673.91,57,664.55,56.33,655.08,56.11Z" transform="translate(-342.96 -56.01)"/><path class="cls-1" d="M952.14,356.81v7.63c0-1.27.05-2.54.05-3.81S952.16,358.08,952.14,356.81Z" transform="translate(-342.96 -56.01)"/><path class="cls-1" d="M597,411.15H347.16C368.48,538.88,469.28,639.69,597,661Z" transform="translate(-342.96 -56.01)"/><path class="cls-1" d="M683.15,411.15H655.08v254h-15v-254H612v252a305.27,305.27,0,0,0,71.15,0Z" transform="translate(-342.96 -56.01)"/><path class="cls-1" d="M698.15,411.15V661C825.88,639.69,926.67,538.88,948,411.15Z" transform="translate(-342.96 -56.01)"/><path class="cls-1" d="M343,356.78c0,1.28-.05,2.56-.05,3.85s0,2.56.05,3.84Z" transform="translate(-342.96 -56.01)"/><path class="cls-1" d="M597,310V60.21C469.31,81.56,368.54,182.32,347.17,310Z" transform="translate(-342.96 -56.01)"/><path class="cls-1" d="M640.08,56.11c-9.48.22-18.84.9-28.08,2V310h28.08Z" transform="translate(-342.96 -56.01)"/><rect class="cls-1" x="269.04" y="268.99" width="28.08" height="28.08"/><path class="cls-1" d="M597,368.08H343.06c.22,9.47.9,18.83,2,28.07H597Z" transform="translate(-342.96 -56.01)"/><path class="cls-1" d="M345.05,325q-1.62,13.86-2,28.08H597V325Z" transform="translate(-342.96 -56.01)"/><circle class="cls-2" cx="304.62" cy="304.62" r="208.85"/></svg>